# xmcd
#
# Track frame offsets:
#  150
#  20465
#  48292
#  72401
#  103090
#  127214
#  150519
#  177036
#  199412
#  230328
#
# Disc length: 3270 seconds
#
# Revision: 0
# Processed by: cddbd v1.5.1PL2 Copyright (c) Steve Scherf et al.
# Submitted via: Collectorz.com_Music_Collector 6.9
#
DISCID=860cc40a
DTITLE=Michael Katon - MK
DYEAR=2006
DGENRE=Blues - Blues-Rock
TTITLE0=Back To Your Cages
TTITLE1=On The Prowl For A Hoochie Mama
TTITLE2=Diablo Boogie
TTITLE3=Need It Awful Bad (Tribute To JM And RT)
TTITLE4=Rock 'n' Roll Man
TTITLE5=Whiskey Hill
TTITLE6=In The Land Of Rock 'n' Roll
TTITLE7=Dirty Thang
TTITLE8=Luv A Dawg
TTITLE9=Motor Cycle Blues
EXTD=
EXTT0=
EXTT1=
EXTT2=
EXTT3=
EXTT4=
EXTT5=
EXTT6=
EXTT7=
EXTT8=
EXTT9=
PLAYORDER=
